<svg width="16" height="16" viewBox="0 0 16 16" fill="none" xmlns="http://www.w3.org/2000/svg">
<g clip-path="url(#clip0_10_426)">
<path d="M16 8.04902C16 3.60302 12.418 -0.000976562 7.99999 -0.000976562C3.57999 2.34375e-05 -0.00201416 3.60302 -0.00201416 8.05002C-0.00201416 12.067 2.92399 15.397 6.74799 16.001V10.376H4.71799V8.05002H6.74999V6.27502C6.74999 4.25802 7.94499 3.14402 9.77199 3.14402C10.648 3.14402 11.563 3.30102 11.563 3.30102V5.28102H10.554C9.56099 5.28102 9.25099 5.90202 9.25099 6.53902V8.04902H11.469L11.115 10.375H9.24999V16C13.074 15.396 16 12.066 16 8.04902Z" fill="white"/>
</g>
<defs>
<clipPath id="clip0_10_426">
<rect width="16" height="16" fill="white"/>
</clipPath>
</defs>
</svg>
