<svg width="24" height="24" viewBox="0 0 24 24" fill="none" xmlns="http://www.w3.org/2000/svg">
<g clip-path="url(#clip0_4_2)">
<path d="M21.8719 0.90564H2.13C1.4538 0.90564 0.905624 1.45381 0.905624 2.13001V21.8719C0.905624 22.5481 1.4538 23.0963 2.13 23.0963H21.8719C22.5481 23.0963 23.0962 22.5481 23.0962 21.8719V2.13001C23.0962 1.45381 22.5481 0.90564 21.8719 0.90564Z" fill="#3D5A98"/>
<path d="M16.215 23.0944V14.5013H19.0987L19.53 11.1525H16.215V9.01504C16.215 8.04567 16.485 7.38379 17.8744 7.38379H19.6481V4.38379C18.7892 4.29444 17.926 4.25188 17.0625 4.25629C14.5087 4.25629 12.75 5.81254 12.75 8.68317V11.1525H9.86625V14.5013H12.75V23.0944H16.215Z" fill="white"/>
</g>
<defs>
<clipPath id="clip0_4_2">
<rect width="24" height="24" fill="white"/>
</clipPath>
</defs>
</svg>
